# xmcd
#
# Track frame offsets:
# 150
# 17875
# 44662
# 70850
# 101675
# 130200
# 166100
#
# Disc length: 2364 seconds
#
#
# Revision: 10
# Processed by: cddbd v1.5.1PL2 Copyright (c) Steve Scherf et al.
# Submitted via: FreeRIP 2.945 
#
DISCID=5b093a07
DTITLE=Culture Beat - Inside Out [German Version]
DYEAR=1995
DGENRE=Eurodance
TTITLE0=Culture Beat - Inside Out [Radio Edit]
TTITLE1=Culture Beat - Inside Out [Extended Version]
TTITLE2=Culture Beat - Inside Out [Doug Laurent Mix]
TTITLE3=Culture Beat - Inside Out [Temple of Light Mix]
TTITLE4=Culture Beat - Inside Out [Mikado Mix]
TTITLE5=Culture Beat - Inside Out [Transformed Brainstorm Mix]
TTITLE6=Culture Beat - Inside Out [Not Normal Mix]
EXTD=
EXTT0=
EXTT1=
EXTT2=
EXTT3=
EXTT4=
EXTT5=
EXTT6=
PLAYORDER=
